{
  "source": "C:\\Users\\Peter\\Desktop\\stuff\\MIUN\\quantitative_research\\video_compression\\videos\\BVI-HD\\CalmingWater_1920x1080_60fps.mp4",
  "output": "C:\\Users\\Peter\\Desktop\\stuff\\MIUN\\quantitative_research\\video_compression\\compressed_videos\\BVI-HD\\vp9\\12\\CalmingWater_1920x1080_60fps_vp9.webm",
  "codec": "vp9",
  "ok": "Input #0, mov,mp4,m4a,3gp,3g2,mj2, from 'C:\\Users\\Peter\\Desktop\\stuff\\MIUN\\quantitative_research\\video_compression\\videos\\BVI-HD\\CalmingWater_1920x1080_60fps.mp4':\n  Metadata:\n    major_brand     : isom\n    minor_version   : 512\n    compatible_brands: isomiso2avc1mp41\n    encoder         : Lavf54.28.101\n  Duration: 00:00:05.00, start: 0.000000, bitrate: 623787 kb/s\n  Stream #0:0[0x1](und): Video: h264 (High 4:4:4 Predictive) (avc1 / 0x31637661), yuv420p(progressive), 1920x1080, 623782 kb/s, 60 fps, 60 tbr, 60 tbn (default)\n    Metadata:\n      handler_name    : VideoHandler\n      vendor_id       : [0][0][0][0]\n[out#0/webm @ 000001a4a0949400] Codec AVOption b:a (set bitrate (in bits/s)) has not been used for any stream. The most likely reason is either wrong type (e.g. a video option with no video streams) or that it is a private option of some decoder which was not actually used for any stream.\nStream mapping:\n  Stream #0:0 -> #0:0 (h264 (native) -> vp9 (libvpx-vp9))\nPress [q] to stop, [?] for help\n[libvpx-vp9 @ 000001a4a095b6c0] v1.15.2-100-g40561f514\nOutput #0, webm, to 'C:\\Users\\Peter\\Desktop\\stuff\\MIUN\\quantitative_research\\video_compression\\compressed_videos\\BVI-HD\\vp9\\12\\CalmingWater_1920x1080_60fps_vp9.webm':\n  Metadata:\n    major_brand     : isom\n    minor_version   : 512\n    compatible_brands: isomiso2avc1mp41\n    encoder         : Lavf62.3.100\n  Stream #0:0(und): Video: vp9, yuv420p(tv, progressive), 1920x1080, q=2-31, 12000 kb/s, 60 fps, 1k tbn (default)\n    Metadata:\n      encoder         : Lavc62.11.100 libvpx-vp9\n      handler_name    : VideoHandler\n      vendor_id       : [0][0][0][0]\n    Side data:\n      cpb: bitrate max/min/avg: 0/0/0 buffer size: 12000000 vbv_delay: N/A\nframe=    0 fps=0.0 q=0.0 size=       0KiB time=N/A bitrate=N/A speed=N/A elapsed=0:00:00.52    \nframe=    1 fps=0.9 q=12.0 size=       1KiB time=00:00:00.01 bitrate= 303.8kbits/s speed=0.0145x elapsed=0:00:01.15    \nframe=    4 fps=2.4 q=50.0 size=       1KiB time=00:00:00.06 bitrate=  76.0kbits/s speed=0.04x elapsed=0:00:01.66    \nframe=    6 fps=2.7 q=57.0 size=       1KiB time=00:00:00.10 bitrate=  50.6kbits/s speed=0.0453x elapsed=0:00:02.20    \nframe=    9 fps=3.3 q=56.0 size=       1KiB time=00:00:00.15 bitrate=  33.8kbits/s speed=0.055x elapsed=0:00:02.72    \nframe=   11 fps=3.4 q=56.0 size=       1KiB time=00:00:00.18 bitrate=  27.6kbits/s speed=0.0565x elapsed=0:00:03.24    \nframe=   13 fps=3.4 q=30.0 size=       1KiB time=00:00:00.21 bitrate=  23.4kbits/s speed=0.0574x elapsed=0:00:03.77    \nframe=   15 fps=3.5 q=56.0 size=       1KiB time=00:00:00.25 bitrate=  20.3kbits/s speed=0.0581x elapsed=0:00:04.30    \nframe=   17 fps=3.5 q=56.0 size=       1KiB time=00:00:00.28 bitrate=  17.9kbits/s speed=0.0588x elapsed=0:00:04.81    \nframe=   19 fps=3.6 q=56.0 size=       1KiB time=00:00:00.31 bitrate=  16.0kbits/s speed=0.0594x elapsed=0:00:05.33    \nframe=   21 fps=3.6 q=56.0 size=       1KiB time=00:00:00.35 bitrate=  14.5kbits/s speed=0.0598x elapsed=0:00:05.85    \nframe=   24 fps=3.8 q=56.0 size=       1KiB time=00:00:00.40 bitrate=  12.7kbits/s speed=0.0627x elapsed=0:00:06.38    \nframe=   25 fps=3.6 q=31.0 size=       1KiB time=00:00:00.41 bitrate=  12.2kbits/s speed=0.0602x elapsed=0:00:06.92    \nframe=   27 fps=3.6 q=56.0 size=       1KiB time=00:00:00.45 bitrate=  11.3kbits/s speed=0.0605x elapsed=0:00:07.44    \nframe=   29 fps=3.6 q=56.0 size=       1KiB time=00:00:00.48 bitrate=  10.5kbits/s speed=0.0607x elapsed=0:00:07.96    \nframe=   31 fps=3.6 q=56.0 size=       1KiB time=00:00:00.51 bitrate=   9.8kbits/s speed=0.0608x elapsed=0:00:08.50    \nframe=   34 fps=3.8 q=56.0 size=       1KiB time=00:00:00.56 bitrate=   8.9kbits/s speed=0.0628x elapsed=0:00:09.02    \nframe=   35 fps=3.7 q=56.0 size=       1KiB time=00:00:00.58 bitrate=   8.7kbits/s speed=0.0609x elapsed=0:00:09.57    \nframe=   37 fps=3.7 q=42.0 size=       1KiB time=00:00:00.61 bitrate=   8.2kbits/s speed=0.0611x elapsed=0:00:10.09    \nframe=   39 fps=3.7 q=55.0 size=       1KiB time=00:00:00.65 bitrate=   7.8kbits/s speed=0.0612x elapsed=0:00:10.62    \nframe=   41 fps=3.7 q=56.0 size=       1KiB time=00:00:00.68 bitrate=   7.4kbits/s speed=0.0612x elapsed=0:00:11.15    \nframe=   43 fps=3.7 q=42.0 size=       1KiB time=00:00:00.71 bitrate=   7.1kbits/s speed=0.0613x elapsed=0:00:11.68    \nframe=   45 fps=3.7 q=56.0 size=       1KiB time=00:00:00.75 bitrate=   6.8kbits/s speed=0.0614x elapsed=0:00:12.21    \nframe=   47 fps=3.7 q=56.0 size=       1KiB time=00:00:00.78 bitrate=   6.5kbits/s speed=0.0613x elapsed=0:00:12.77    \nframe=   49 fps=3.7 q=42.0 size=       1KiB time=00:00:00.81 bitrate=   6.2kbits/s speed=0.0613x elapsed=0:00:13.31    \nframe=   51 fps=3.7 q=56.0 size=       1KiB time=00:00:00.85 bitrate=   6.0kbits/s speed=0.0613x elapsed=0:00:13.85    \nframe=   53 fps=3.7 q=56.0 size=       1KiB time=00:00:00.88 bitrate=   5.7kbits/s speed=0.0613x elapsed=0:00:14.39    \nframe=   54 fps=3.6 q=56.0 size=       1KiB time=00:00:00.90 bitrate=   5.6kbits/s speed=0.0603x elapsed=0:00:14.92    \nframe=   57 fps=3.7 q=56.0 size=       1KiB time=00:00:00.95 bitrate=   5.3kbits/s speed=0.0615x elapsed=0:00:15.45    \nframe=   59 fps=3.7 q=56.0 size=       1KiB time=00:00:00.98 bitrate=   5.1kbits/s speed=0.0615x elapsed=0:00:15.99    \nframe=   60 fps=3.6 q=56.0 size=       1KiB time=00:00:01.00 bitrate=   5.1kbits/s speed=0.0605x elapsed=0:00:16.53    \nframe=   62 fps=3.6 q=56.0 size=       1KiB time=00:00:01.03 bitrate=   4.9kbits/s speed=0.0606x elapsed=0:00:17.05    \nframe=   65 fps=3.7 q=56.0 size=       1KiB time=00:00:01.08 bitrate=   4.7kbits/s speed=0.0616x elapsed=0:00:17.57    \nframe=   66 fps=3.6 q=56.0 size=       1KiB time=00:00:01.10 bitrate=   4.6kbits/s speed=0.0607x elapsed=0:00:18.10    \nframe=   69 fps=3.7 q=56.0 size=       1KiB time=00:00:01.15 bitrate=   4.4kbits/s speed=0.0618x elapsed=0:00:18.61    \nframe=   71 fps=3.7 q=56.0 size=       1KiB time=00:00:01.18 bitrate=   4.3kbits/s speed=0.0617x elapsed=0:00:19.16    \nframe=   73 fps=3.7 q=42.0 size=       1KiB time=00:00:01.21 bitrate=   4.2kbits/s speed=0.0617x elapsed=0:00:19.71    \nframe=   75 fps=3.7 q=56.0 size=       1KiB time=00:00:01.25 bitrate=   4.1kbits/s speed=0.0617x elapsed=0:00:20.25    \nframe=   77 fps=3.7 q=56.0 size=       1KiB time=00:00:01.28 bitrate=   3.9kbits/s speed=0.0617x elapsed=0:00:20.80    \nframe=   79 fps=3.7 q=42.0 size=       1KiB time=00:00:01.31 bitrate=   3.8kbits/s speed=0.0617x elapsed=0:00:21.33    \nframe=   81 fps=3.7 q=56.0 size=       1KiB time=00:00:01.35 bitrate=   3.8kbits/s speed=0.0617x elapsed=0:00:21.88    \nframe=   83 fps=3.7 q=56.0 size=       1KiB time=00:00:01.38 bitrate=   3.7kbits/s speed=0.0617x elapsed=0:00:22.41    \nframe=   85 fps=3.7 q=42.0 size=       1KiB time=00:00:01.41 bitrate=   3.6kbits/s speed=0.0617x elapsed=0:00:22.95    \nframe=   87 fps=3.7 q=56.0 size=       1KiB time=00:00:01.45 bitrate=   3.5kbits/s speed=0.0618x elapsed=0:00:23.47    \nframe=   89 fps=3.7 q=56.0 size=       1KiB time=00:00:01.48 bitrate=   3.4kbits/s speed=0.0618x elapsed=0:00:24.01    \nframe=   91 fps=3.7 q=42.0 size=       1KiB time=00:00:01.51 bitrate=   3.3kbits/s speed=0.0618x elapsed=0:00:24.52    \nframe=   93 fps=3.7 q=56.0 size=       1KiB time=00:00:01.55 bitrate=   3.3kbits/s speed=0.0619x elapsed=0:00:25.04    \nframe=   96 fps=3.8 q=56.0 size=       1KiB time=00:00:01.60 bitrate=   3.2kbits/s speed=0.0626x elapsed=0:00:25.57    \nframe=   98 fps=3.8 q=56.0 size=       1KiB time=00:00:01.63 bitrate=   3.1kbits/s speed=0.0625x elapsed=0:00:26.12    \nframe=  100 fps=3.8 q=55.0 size=       1KiB time=00:00:01.66 bitrate=   3.0kbits/s speed=0.0625x elapsed=0:00:26.65    \nframe=  102 fps=3.8 q=55.0 size=       1KiB time=00:00:01.70 bitrate=   3.0kbits/s speed=0.0625x elapsed=0:00:27.19    \nframe=  105 fps=3.8 q=55.0 size=       1KiB time=00:00:01.75 bitrate=   2.9kbits/s speed=0.0631x elapsed=0:00:27.74    \nframe=  107 fps=3.8 q=55.0 size=       1KiB time=00:00:01.78 bitrate=   2.8kbits/s speed=0.0631x elapsed=0:00:28.26    \nframe=  109 fps=3.8 q=41.0 size=       1KiB time=00:00:01.81 bitrate=   2.8kbits/s speed=0.0631x elapsed=0:00:28.79    \nframe=  111 fps=3.8 q=55.0 size=       1KiB time=00:00:01.85 bitrate=   2.7kbits/s speed=0.0631x elapsed=0:00:29.32    \nframe=  113 fps=3.8 q=55.0 size=       1KiB time=00:00:01.88 bitrate=   2.7kbits/s speed=0.0631x elapsed=0:00:29.85    \nframe=  115 fps=3.8 q=41.0 size=       1KiB time=00:00:01.91 bitrate=   2.6kbits/s speed=0.0631x elapsed=0:00:30.37    \nframe=  118 fps=3.8 q=55.0 size=       1KiB time=00:00:01.96 bitrate=   2.6kbits/s speed=0.0637x elapsed=0:00:30.88    \nframe=  120 fps=3.8 q=55.0 size=       1KiB time=00:00:02.00 bitrate=   2.5kbits/s speed=0.0637x elapsed=0:00:31.39    \nframe=  121 fps=3.8 q=41.0 size=       1KiB time=00:00:02.01 bitrate=   2.5kbits/s speed=0.0632x elapsed=0:00:31.91    \nframe=  123 fps=3.8 q=54.0 size=       1KiB time=00:00:02.05 bitrate=   2.5kbits/s speed=0.0632x elapsed=0:00:32.43    \nframe=  125 fps=3.8 q=54.0 size=       1KiB time=00:00:02.08 bitrate=   2.4kbits/s speed=0.0632x elapsed=0:00:32.95    \nframe=  127 fps=3.8 q=54.0 size=       1KiB time=00:00:02.11 bitrate=   2.4kbits/s speed=0.0632x elapsed=0:00:33.48    \nframe=  129 fps=3.8 q=41.0 size=       1KiB time=00:00:02.15 bitrate=   2.4kbits/s speed=0.0632x elapsed=0:00:34.00    \nframe=  132 fps=3.8 q=55.0 size=    2816KiB time=00:00:02.20 bitrate=10485.8kbits/s speed=0.0638x elapsed=0:00:34.50    \nframe=  134 fps=3.8 q=55.0 size=    2816KiB time=00:00:02.23 bitrate=10329.3kbits/s speed=0.0638x elapsed=0:00:35.02    \nframe=  136 fps=3.8 q=55.0 size=    2816KiB time=00:00:02.26 bitrate=10177.4kbits/s speed=0.0637x elapsed=0:00:35.59    \nframe=  138 fps=3.8 q=55.0 size=    2816KiB time=00:00:02.30 bitrate=10029.9kbits/s speed=0.0637x elapsed=0:00:36.12    \nframe=  140 fps=3.8 q=55.0 size=    2816KiB time=00:00:02.33 bitrate=9886.6kbits/s speed=0.0637x elapsed=0:00:36.65    \nframe=  142 fps=3.8 q=55.0 size=    2816KiB time=00:00:02.36 bitrate=9747.3kbits/s speed=0.0636x elapsed=0:00:37.19    \nframe=  144 fps=3.8 q=55.0 size=    2816KiB time=00:00:02.40 bitrate=9611.9kbits/s speed=0.0636x elapsed=0:00:37.72    \nframe=  146 fps=3.8 q=55.0 size=    2816KiB time=00:00:02.43 bitrate=9480.3kbits/s speed=0.0636x elapsed=0:00:38.25    \nframe=  148 fps=3.8 q=55.0 size=    2816KiB time=00:00:02.46 bitrate=9352.2kbits/s speed=0.0636x elapsed=0:00:38.79    \nframe=  150 fps=3.8 q=55.0 size=    2816KiB time=00:00:02.50 bitrate=9227.5kbits/s speed=0.0636x elapsed=0:00:39.30    \nframe=  152 fps=3.8 q=55.0 size=    2816KiB time=00:00:02.53 bitrate=9106.1kbits/s speed=0.0636x elapsed=0:00:39.83    \nframe=  154 fps=3.8 q=55.0 size=    2816KiB time=00:00:02.56 bitrate=8987.8kbits/s speed=0.0636x elapsed=0:00:40.35    \nframe=  156 fps=3.8 q=55.0 size=    2816KiB time=00:00:02.60 bitrate=8872.6kbits/s speed=0.0636x elapsed=0:00:40.88    \nframe=  158 fps=3.8 q=55.0 size=    2816KiB time=00:00:02.63 bitrate=8760.3kbits/s speed=0.0636x elapsed=0:00:41.41    \nframe=  161 fps=3.8 q=54.0 size=    2816KiB time=00:00:02.68 bitrate=8597.0kbits/s speed=0.064x elapsed=0:00:41.95    \nframe=  163 fps=3.8 q=54.0 size=    2816KiB time=00:00:02.71 bitrate=8491.5kbits/s speed=0.064x elapsed=0:00:42.47    \nframe=  164 fps=3.8 q=54.0 size=    2816KiB time=00:00:02.73 bitrate=8439.8kbits/s speed=0.0635x elapsed=0:00:43.02    \nframe=  167 fps=3.8 q=54.0 size=    2816KiB time=00:00:02.78 bitrate=8288.1kbits/s speed=0.0639x elapsed=0:00:43.54    \nframe=  169 fps=3.8 q=54.0 size=    2816KiB time=00:00:02.81 bitrate=8190.1kbits/s speed=0.0639x elapsed=0:00:44.09    \nframe=  170 fps=3.8 q=54.0 size=    2816KiB time=00:00:02.83 bitrate=8141.9kbits/s speed=0.0635x elapsed=0:00:44.64    \nframe=  173 fps=3.8 q=54.0 size=    2816KiB time=00:00:02.88 bitrate=8000.7kbits/s speed=0.0639x elapsed=0:00:45.15    \nframe=  175 fps=3.8 q=54.0 size=    2816KiB time=00:00:02.91 bitrate=7909.3kbits/s speed=0.0638x elapsed=0:00:45.68    \nframe=  177 fps=3.8 q=40.0 size=    2816KiB time=00:00:02.95 bitrate=7819.9kbits/s speed=0.0638x elapsed=0:00:46.21    \nframe=  179 fps=3.8 q=54.0 size=    2816KiB time=00:00:02.98 bitrate=7732.5kbits/s speed=0.0638x elapsed=0:00:46.77    \nframe=  181 fps=3.8 q=54.0 size=    2816KiB time=00:00:03.01 bitrate=7647.1kbits/s speed=0.0638x elapsed=0:00:47.31    \nframe=  183 fps=3.8 q=39.0 size=    2816KiB time=00:00:03.05 bitrate=7563.5kbits/s speed=0.0637x elapsed=0:00:47.85    \nframe=  186 fps=3.8 q=54.0 size=    2816KiB time=00:00:03.10 bitrate=7441.5kbits/s speed=0.0641x elapsed=0:00:48.37    \nframe=  188 fps=3.8 q=54.0 size=    2816KiB time=00:00:03.13 bitrate=7362.3kbits/s speed=0.064x elapsed=0:00:48.93    \nframe=  190 fps=3.8 q=51.0 size=    2816KiB time=00:00:03.16 bitrate=7284.8kbits/s speed=0.064x elapsed=0:00:49.46    \nframe=  192 fps=3.8 q=51.0 size=    2816KiB time=00:00:03.20 bitrate=7209.0kbits/s speed=0.064x elapsed=0:00:50.00    \nframe=  194 fps=3.8 q=51.0 size=    2816KiB time=00:00:03.23 bitrate=7134.6kbits/s speed=0.0639x elapsed=0:00:50.58    \nframe=  196 fps=3.8 q=51.0 size=    2816KiB time=00:00:03.26 bitrate=7061.8kbits/s speed=0.0639x elapsed=0:00:51.13    \nframe=  199 fps=3.9 q=51.0 size=    2816KiB time=00:00:03.31 bitrate=6955.4kbits/s speed=0.0642x elapsed=0:00:51.67    \nframe=  201 fps=3.8 q=51.0 size=    2816KiB time=00:00:03.33 bitrate=6920.6kbits/s speed=0.0638x elapsed=0:00:52.23    \nframe=  203 fps=3.8 q=50.0 size=    2816KiB time=00:00:03.38 bitrate=6818.3kbits/s speed=0.0641x elapsed=0:00:52.75    \nframe=  205 fps=3.8 q=50.0 size=    2816KiB time=00:00:03.41 bitrate=6751.8kbits/s speed=0.0641x elapsed=0:00:53.29    \nframe=  207 fps=3.8 q=50.0 size=    2816KiB time=00:00:03.45 bitrate=6686.6kbits/s speed=0.0641x elapsed=0:00:53.86    \nframe=  209 fps=3.8 q=50.0 size=    2816KiB time=00:00:03.48 bitrate=6622.6kbits/s speed=0.0641x elapsed=0:00:54.36    \nframe=  211 fps=3.8 q=50.0 size=    2816KiB time=00:00:03.51 bitrate=6559.8kbits/s speed=0.0641x elapsed=0:00:54.88    \nframe=  213 fps=3.8 q=50.0 size=    2816KiB time=00:00:03.55 bitrate=6498.2kbits/s speed=0.0641x elapsed=0:00:55.40    \nframe=  215 fps=3.8 q=50.0 size=    2816KiB time=00:00:03.58 bitrate=6437.8kbits/s speed=0.0641x elapsed=0:00:55.93    \nframe=  217 fps=3.8 q=50.0 size=    2816KiB time=00:00:03.61 bitrate=6378.4kbits/s speed=0.0641x elapsed=0:00:56.45    \nframe=  220 fps=3.9 q=50.0 size=    2816KiB time=00:00:03.66 bitrate=6291.5kbits/s speed=0.0643x elapsed=0:00:56.99    \nframe=  222 fps=3.9 q=50.0 size=    2816KiB time=00:00:03.70 bitrate=6234.8kbits/s speed=0.0643x elapsed=0:00:57.55    \nframe=  223 fps=3.8 q=50.0 size=    2816KiB time=00:00:03.71 bitrate=6206.8kbits/s speed=0.064x elapsed=0:00:58.08    \nframe=  226 fps=3.9 q=50.0 size=    2816KiB time=00:00:03.76 bitrate=6124.4kbits/s speed=0.0642x elapsed=0:00:58.63    \nframe=  228 fps=3.9 q=50.0 size=    2816KiB time=00:00:03.80 bitrate=6070.7kbits/s speed=0.0642x elapsed=0:00:59.20    \nframe=  231 fps=3.9 q=50.0 size=    2816KiB time=00:00:03.85 bitrate=5991.9kbits/s speed=0.0644x elapsed=0:00:59.74    \nframe=  233 fps=3.9 q=50.0 size=    2816KiB time=00:00:03.88 bitrate=5940.4kbits/s speed=0.0643x elapsed=0:01:00.35    \nframe=  235 fps=3.9 q=50.0 size=    2816KiB time=00:00:03.91 bitrate=5889.9kbits/s speed=0.0643x elapsed=0:01:00.91    \nframe=  237 fps=3.9 q=51.0 size=    2816KiB time=00:00:03.95 bitrate=5840.2kbits/s speed=0.0643x elapsed=0:01:01.45    \nframe=  239 fps=3.9 q=51.0 size=    2816KiB time=00:00:03.98 bitrate=5791.3kbits/s speed=0.0642x elapsed=0:01:02.01    \nframe=  241 fps=3.8 q=51.0 size=    2816KiB time=00:00:04.01 bitrate=5743.2kbits/s speed=0.0641x elapsed=0:01:02.61    \nframe=  243 fps=3.8 q=51.0 size=    2816KiB time=00:00:04.05 bitrate=5696.0kbits/s speed=0.0641x elapsed=0:01:03.17    \nframe=  245 fps=3.8 q=51.0 size=    2816KiB time=00:00:04.08 bitrate=5649.5kbits/s speed=0.0641x elapsed=0:01:03.74    \nframe=  246 fps=3.8 q=35.0 size=    2816KiB time=00:00:04.10 bitrate=5626.5kbits/s speed=0.0638x elapsed=0:01:04.29    \nframe=  248 fps=3.8 q=50.0 size=    2816KiB time=00:00:04.13 bitrate=5581.1kbits/s speed=0.0637x elapsed=0:01:04.86    \nframe=  249 fps=3.8 q=50.0 size=    2816KiB time=00:00:04.15 bitrate=5558.7kbits/s speed=0.0634x elapsed=0:01:05.46    \nframe=  251 fps=3.8 q=50.0 size=    2816KiB time=00:00:04.18 bitrate=5514.4kbits/s speed=0.0634x elapsed=0:01:06.01    \nframe=  253 fps=3.8 q=50.0 size=    2816KiB time=00:00:04.21 bitrate=5470.8kbits/s speed=0.0634x elapsed=0:01:06.55    \nframe=  255 fps=3.8 q=50.0 size=    2816KiB time=00:00:04.25 bitrate=5427.9kbits/s speed=0.0633x elapsed=0:01:07.15    \nframe=  257 fps=3.8 q=35.0 size=    2816KiB time=00:00:04.28 bitrate=5385.7kbits/s speed=0.0633x elapsed=0:01:07.70    \nframe=  258 fps=3.8 q=51.0 size=    5632KiB time=00:00:04.30 bitrate=10729.6kbits/s speed=0.063x elapsed=0:01:08.23    \nframe=  260 fps=3.8 q=50.0 size=    5632KiB time=00:00:04.33 bitrate=10647.1kbits/s speed=0.0629x elapsed=0:01:08.91    \nframe=  261 fps=3.8 q=50.0 size=    5632KiB time=00:00:04.35 bitrate=10606.3kbits/s speed=0.0626x elapsed=0:01:09.47    \nframe=  263 fps=3.8 q=50.0 size=    5632KiB time=00:00:04.38 bitrate=10525.6kbits/s speed=0.0626x elapsed=0:01:10.00    \nframe=  265 fps=3.8 q=50.0 size=    5632KiB time=00:00:04.41 bitrate=10446.2kbits/s speed=0.0626x elapsed=0:01:10.56    \nframe=  266 fps=3.7 q=50.0 size=    5632KiB time=00:00:04.43 bitrate=10406.9kbits/s speed=0.0623x elapsed=0:01:11.10    \nframe=  268 fps=3.7 q=50.0 size=    5632KiB time=00:00:04.46 bitrate=10329.3kbits/s speed=0.0623x elapsed=0:01:11.69    \nframe=  268 fps=3.7 q=50.0 size=    5632KiB time=00:00:04.46 bitrate=10329.3kbits/s speed=0.0618x elapsed=0:01:12.24    \nframe=  270 fps=3.7 q=50.0 size=    5632KiB time=00:00:04.50 bitrate=10252.7kbits/s speed=0.0618x elapsed=0:01:12.77    \nframe=  271 fps=3.7 q=50.0 size=    5632KiB time=00:00:04.51 bitrate=10214.9kbits/s speed=0.0616x elapsed=0:01:13.33    \nframe=  273 fps=3.7 q=50.0 size=    5632KiB time=00:00:04.55 bitrate=10140.1kbits/s speed=0.0616x elapsed=0:01:13.86    \nframe=  274 fps=3.7 q=50.0 size=    5632KiB time=00:00:04.56 bitrate=10103.1kbits/s speed=0.0614x elapsed=0:01:14.40    \nframe=  276 fps=3.7 q=50.0 size=    5632KiB time=00:00:04.60 bitrate=10029.9kbits/s speed=0.0614x elapsed=0:01:14.93    \nframe=  276 fps=3.7 q=50.0 size=    5632KiB time=00:00:04.60 bitrate=10029.9kbits/s speed=0.0609x elapsed=0:01:15.51    \nframe=  276 fps=3.6 q=50.0 size=    5632KiB time=00:00:04.60 bitrate=10029.9kbits/s speed=0.0605x elapsed=0:01:16.05    \nframe=  276 fps=3.6 q=50.0 size=    5632KiB time=00:00:04.60 bitrate=10029.9kbits/s speed=0.06x elapsed=0:01:16.60    \nframe=  276 fps=3.6 q=50.0 size=    5632KiB time=00:00:04.60 bitrate=10029.9kbits/s speed=0.0596x elapsed=0:01:17.15    \nframe=  276 fps=3.6 q=50.0 size=    5632KiB time=00:00:04.60 bitrate=10029.9kbits/s speed=0.0592x elapsed=0:01:17.69    \nframe=  276 fps=3.5 q=50.0 size=    5632KiB time=00:00:04.60 bitrate=10029.9kbits/s speed=0.0588x elapsed=0:01:18.21    \nframe=  276 fps=3.5 q=50.0 size=    5632KiB time=00:00:04.60 bitrate=10029.9kbits/s speed=0.0584x elapsed=0:01:18.76    \nframe=  276 fps=3.5 q=50.0 size=    5632KiB time=00:00:04.60 bitrate=10029.9kbits/s speed=0.058x elapsed=0:01:19.33    \nframe=  276 fps=3.5 q=50.0 size=    5632KiB time=00:00:04.60 bitrate=10029.9kbits/s speed=0.0576x elapsed=0:01:19.89    \nframe=  276 fps=3.4 q=50.0 size=    5632KiB time=00:00:04.60 bitrate=10029.9kbits/s speed=0.0572x elapsed=0:01:20.45    \nframe=  276 fps=3.4 q=50.0 size=    5632KiB time=00:00:04.60 bitrate=10029.9kbits/s speed=0.0568x elapsed=0:01:21.02    \nframe=  276 fps=3.4 q=50.0 size=    5632KiB time=00:00:04.60 bitrate=10029.9kbits/s speed=0.0564x elapsed=0:01:21.57    \nframe=  276 fps=3.4 q=50.0 size=    5632KiB time=00:00:04.60 bitrate=10029.9kbits/s speed=0.056x elapsed=0:01:22.09    \nframe=  276 fps=3.3 q=50.0 size=    5632KiB time=00:00:04.60 bitrate=10029.9kbits/s speed=0.0557x elapsed=0:01:22.65    \n[out#0/webm @ 000001a4a0949400] video:6658KiB audio:0KiB subtitle:0KiB other streams:0KiB global headers:0KiB muxing overhead: 0.043462%\nframe=  300 fps=3.6 q=50.0 Lsize=    6661KiB time=00:00:05.00 bitrate=10912.7kbits/s speed=0.0602x elapsed=0:01:22.99    \n",
  "seconds": 83.43582272529602,
  "probe_out": {}
}